<?xml version="1.0" encoding="UTF-8"?>
<svg id="Layer_1" data-name="Layer 1" xmlns="http://www.w3.org/2000/svg" viewBox="0 0 100 31">
  <defs>
    <style>
      .cls-1 {
        fill: #819f9b;
      }

      .cls-1, .cls-2, .cls-3, .cls-4, .cls-5, .cls-6, .cls-7, .cls-8, .cls-9, .cls-10, .cls-11, .cls-12, .cls-13, .cls-14, .cls-15, .cls-16, .cls-17, .cls-18, .cls-19, .cls-20, .cls-21, .cls-22, .cls-23, .cls-24, .cls-25, .cls-26, .cls-27, .cls-28, .cls-29, .cls-30 {
        stroke-width: 0px;
      }

      .cls-2 {
        fill: #5baea8;
      }

      .cls-3 {
        fill: #267e74;
      }

      .cls-4 {
        fill: #1f655f;
      }

      .cls-5 {
        fill: #235260;
      }

      .cls-6 {
        fill: #1b7186;
      }

      .cls-7 {
        fill: #53746f;
      }

      .cls-8 {
        fill: #bf3b29;
      }

      .cls-9 {
        fill: #bf6e2e;
      }

      .cls-10 {
        fill: #289289;
      }

      .cls-11 {
        fill: #7babd7;
      }

      .cls-12 {
        fill: #24856b;
      }

      .cls-13 {
        fill: #26839d;
      }

      .cls-14 {
        fill: #a9cdc8;
      }

      .cls-15 {
        fill: #f5975e;
      }

      .cls-16 {
        fill: #533732;
      }

      .cls-17 {
        fill: #36a19d;
      }

      .cls-18 {
        fill: #649bce;
      }

      .cls-19 {
        fill: #e5edf4;
      }

      .cls-20 {
        fill: #a53526;
      }

      .cls-21 {
        fill: #e96328;
      }

      .cls-22 {
        fill: #227067;
      }

      .cls-23 {
        fill: #6b9fd1;
      }

      .cls-24 {
        fill: #6aa15a;
      }

      .cls-25 {
        fill: #da8d28;
      }

      .cls-26 {
        fill: #eeb71d;
      }

      .cls-27 {
        fill: #fff;
      }

      .cls-28 {
        fill: #164740;
      }

      .cls-29 {
        fill: #bfb233;
      }

      .cls-30 {
        fill: #5c97cc;
      }
    </style>
  </defs>
  <path class="cls-27" d="M50,30.57H.8C.2,30.57,0,30.57,0,30.17V.47C0,.17.1.07.8.07h98.2c.9,0,1,0,1,.5v29.5c0,.4-.2.5-1,.5h-49Z"/>
  <path class="cls-17" d="M86.1,8.47c0,.7,0,1.4-.5,2-.6.5.1,1.3-.2,1.8,0,.2-.4.2-.2.5,0-.1,0-.3.2-.4.2-.4.4-.7.7-.9.3-.3.5-.6.5-1,0-.7.6-.4,1-.5,1.3-.1.3,1.2,1,1.5-.3.3-.7.7-1,1-.5.4,0,1.1-.5,1.5v1c-.1.6-.5,1-1.1,1.3-.5.2-1.1.2-1.6,0-.4,0-.4-.9-1-.6-.4,0-.7.4-1,.4-.9-.5-1.9-.9-2.4-2,0-.5.2-.9.5-1.2.7,0,.9-.4.5-1,0-.6.2-1.1.6-1.5.2,0,.4-.1.7,0,.4.3.5.8.7,1.1.2.3,0,.6.2.9v-.9c-.1-.3-.1-.6,0-.9.2-.4.4-.7.6-1,0-.2.2-.4.3-.5,0,0,.1-.2.2-.2.1-.2.2-.3.4-.5.2-.4.3-1,.7-1.3.2-.1.4-.1.6,0,.3.5,0,1.1.4,1.5h0l-.3-.1Z"/>
  <path class="cls-5" d="M78.1,24.37c-1.9.1-3-1.3-4.4-2.2,0-.9-.8-1.4-1.4-1.8-.7-.5-.7-1.2-.6-1.9.2-1.5,1.2-1.3,2.1-1,.9.3,1.8.8,2.7,1.1.8.5,1.2,1.3,1.8,2l.3.6c.2.6.4,1.2.8,1.7.3.5.4,1,.6,1.6,0,.3,0,.7-.3.9h-1c-.3-.2,0-.8-.5-1h-.1Z"/>
  <path class="cls-13" d="M74.6,11.47c-.2-.1-.5-.3-.5-.4V3.87c0-.1.3-.3.5-.4.4.2.7.4.8.8.3.8.4,1.5.3,2.3.3-.7.1-1.6.9-2.1.5.5.9,1.2,1.4,1.6.2.2.7.2,1.1.3.2-.2.4-.2.6,0,0,.2.1.5.1.7-.2,1.4.7,2.9,0,4.3-.5.8-1.1,1.4-2.2,1.2-.4-.1-.6-.4-.8-.7-.3-1.8-1-2.2-2.3-.6h0l.1.2Z"/>
  <path class="cls-30" d="M35.9,17.47c-.7,1.9-2.3,1.5-3.7,1.5-1.3,0-1.8-.5-1.2-1.6.5-1,.4-1.9.4-2.8s0-1.7-.4-2.5c-.5-1.2.2-2,1.5-2,.5,0,1-.1,1.5,0s.9.5,1.4.8c-.5.8.9,1.3.3,2.2-.5.7-.8,1.7.2,2.5.5.7.5,1.3,0,2h0v-.1Z"/>
  <path class="cls-18" d="M62.7,14.47v3.2c0,.4.4,1.1-.4,1.2-.3,0-.8-.3-1-.6-.9-1.6-2.3-3-2.6-4.9,0-.1-.1-.3-.2-.4,0,.2-.3.4-.3.5v5c0,.1-.3.4-.5.4s-.5-.2-.5-.3v-8.2c0-.1.2-.4.2-.4.3,0,.7.1.8.4.5.9.9,1.9,1.4,2.9.5.9,1.1,1.7,1.6,2.6.1-.1.4-.2.4-.3v-5c0-.2.4-.4.6-.5.1.2.4.3.4.5v4h0l.1-.1Z"/>
  <path class="cls-26" d="M79.6,24.37c-1-.2-.3-1-.5-1.5-.2-.2-.2-.4,0-.6.4-.3.9-.3,1.3-.2.7.3,1.3.7,2,.9.3,0,.6.2.9.2.6,0,1.2-.2,1.7-.4,1.1-.7,2.2-1.1,2.9-2.2.2-.2.3-.3.5-.4.4-.2.9-.2,1.3-.2h.7c.2,0,.4.2.5.4,0,2.2-.2,2.5-2,3-1.5,1-2.6,3.1-5,2-1,.2-2,.3-3,.5-.8-.2-1.3-.7-1.5-1.5h.2Z"/>
  <path class="cls-24" d="M80.1,13.97c0,.1,0,.4.2.4,1,.2,1.7.9,2.3,1.6.3-.3.7-.2,1,0,.6,1.2-.4,1.5-1.2,1.9-.3.1-.7.2-1.1.2-.7,0-1.3.2-1.8.7-.3.4-.3.8-.2,1.2,0,.2,0,.4-.1.6-.3.3-.6.7-1.1.4-.5-.8-.7-1.6-.5-2.5v-.4c-.2,0-.5.1-.7.1-.3-.1-.4-.3-.2-.6v-1.5c-.5-1.1-.6-2.1.3-3.1,1.3-.3,2.5-.5,3.1,1.1h0v-.1Z"/>
  <path class="cls-18" d="M64.7,14.87v.5c0,2.2.5,2.5,2.6,1.8.2,0,.6-.1.6,0,.1.3.3.6.2.9-.2.4-.5.9-.8,1-2.1.6-4-.8-4.1-3v-2.5c-.2-1.1,1.5-1.4,1.1-2.6,0,0,.6-.4.9-.5,1.5-.7,2.8,0,3,1.7,0,.1-.2.4-.4.4s-.4-.2-.6-.3c-1.8-.6-2.4-.1-2.4,1.6v1h-.1Z"/>
  <path class="cls-23" d="M5,15.47v-2.7c0-.5,0-.8-.6-.8s-.8-.1-.8-.3v-1.5c0-.1.4-.2.6-.2h2.7c1.1,0,1.4.4,1.1,1.5,0,.2-.3.5-.4.5-1.2-.2-1.1.5-1.1,1.3v4.9c0,.5,0,.8-.7.8-.6,0-.9,0-.9-.8v-2.7h.1Z"/>
  <path class="cls-21" d="M90.1,20.37h-1.5c-1.3-1.2-1-3.4-2.5-4.5.3-.3.7-.7,1-1,.9-.6,2.3-.7,2.8-2h.7c.2-.2.3-.2.5,0v1.5s.1.2.2.3v1.3c0,.9,0,1.9-.2,2.8-.2.6-.5,1.1-.9,1.5h0l-.1.1Z"/>
  <path class="cls-30" d="M13,16.97v-3.5c0-.2.4-.4.6-.5.2.3.5.6.7.9.2-.3.3-.7.6-.9.2-.1.7,0,.9.1,1.2,1.1,1.6,4.2.6,5.5-.5.7-1.3.5-1.9.1-.4-.2-.5-.3-.6.2-.2.7.5,2-.6,1.9-.9,0-.3-1.4-.4-2.1v-1.7h.1Z"/>
  <path class="cls-30" d="M42.9,18.97c-2.3,0-2.4-.2-2.6-2.6-.1-1.3.6-2.1,1.1-3,.3-.6,1.2-.3,1.8-.3,0,.9,1.3.9,1.2,1.9,0,.9-.4,1.9.4,2.8.5.6,0,1.1-.9,1.2h-1Z"/>
  <path class="cls-22" d="M76.6,17.47c.2.2.3.3.5.5.2.5.4,1-.5,1s-1.8.1-2.7-.8c-.6-.7-1.7-.8-2.3.3h-.2c-.7-1-1.3-2.5-.5-3.3s2.2,0,3.3.5c.9.5,1.3,1.6,2.5,1.7l-.1.1Z"/>
  <path class="cls-18" d="M36.4,15.47c-.2-1.1,1.2-1.4,1.3-2.5h1.2c.6,0,.4.6.6.8.8.9.3,1.9.4,2.8,0,.1-.3.4-.5.4h-1.7v.5c.3.6.9.5,1.5.5.2,0,.5-.9.7,0,0,.4.3,1-.6,1h-1.7c-.8-.1-1.3-.6-1.2-1.5-.4-.7-.4-1.3,0-2h0Z"/>
  <path class="cls-18" d="M20.4,15.97v-1.2c.3-2,.8-2.2,2.5-1,0,0,.3,0,.4-.1.2-.2.3-.6.5-.6.7,0,.5.5.5.8v4.5c0,.7-.4.9-.9.5-.4-.3-.5,0-.7,0-1.7.4-1.9.2-2.4-1.3-.4-.5-.4-1,0-1.5h0l.1-.1Z"/>
  <path class="cls-3" d="M92.1,14.47c-.2-.8,1.4-.3,1-1.2.6-.2,1.1-.5,1.7-.7,1-.4,1.7.1,1.2,1.2-.6,1.5-.6,3.4-2.4,4.2-.4.3-.8.4-1.3.5-1.3,0-1.3-.8-1-1.8.2-.7,1.4-1.1.8-2.1h0v-.1Z"/>
  <path class="cls-23" d="M12.7,16.37c.2,1.3-.7,1.9-1.4,2.5-.2.2-.8,0-.8.6,0,0-.2.2-.4.2,0-1.1-1.3-.7-1.6-1.5-.2-.7-.5-1.3-.5-2,0-1,.9-1.6,1.3-2.4s.8-.9,1.4-.8c.3,0,.6.2.7.4.4,1,.8,2,1.2,3h.1Z"/>
  <path class="cls-11" d="M52.8,18.97q-1.5,0-1.5-1.1v-3c0-.6-.6-.3-1-.4-1.1-.2-.9-.8-.5-1.5h1c1.6,0,2,.4,2,2.1v3.9h0Z"/>
  <path class="cls-23" d="M20.4,15.97v1.5c-.6.6-.9,1.6-2,1.7-.1,0-.2.5-.4.7,0-.2-.2-.4-.2-.7,0-.6-.2-1.3.8-1.4.4,0,.3-.6-.2-.9-.2-.1-.5-.3-.6-.5-.2-.6-.6-1.2-.4-1.7.1-.4.4-.8.4-1.3,0-.6.6-.4.9-.4.6,0,.6.4.6.8v.5c-.2.9,0,1.5,1,1.7h.1Z"/>
  <path class="cls-18" d="M47.2,18.97c-1.2,0-1.8-.5-1.9-1.8,0-1.3-.3-2.6,1-3.5,0-1.4,1.2-.3,1.7-.7,0,.5.4,1.1.3,1.5-.2,1-.5-.1-.7,0-.3,0-.6.2-.8.3-.8.5-.4,1.4-.4,2,0,.9.7,1.1,1.5,1.1.1,0,.3.3.4.4-.2.2-.4.4-.6.5h-.5v.2Z"/>
  <path class="cls-18" d="M49.8,12.97c.2.5-.5,1.3.5,1.5-.2.7-.4,1.3-.5,2v2c0,.2-.2.3-.4.5-.2-.2-.6-.4-.6-.5v-7.9c.3-.3.7-.3,1,0v2.5h0v-.1Z"/>
  <path class="cls-2" d="M84.1,9.47c.2.8-.2,1.1-1,1,0,0-.2-.2-.3-.2-.2-.3-.3-.7-.3-1,0-.9-.6-1.8,0-2.7v-3.5c.3-.3.7-.3,1,0,.2.5-.5,1.3.5,1.5,0,0,.2.2.3.3.4.7.4,1.5.2,2.3,0,.6,0,1.3-.5,1.9-.1.1-.2.2-.1.3s0,.2.1.2l.1-.1Z"/>
  <path class="cls-6" d="M74.6,11.47v-1q0-.9,1.2-.6h.7c.3-.2.6-.7.7.1v2c-.3.8-.8,1.5-1.5,2-.7,0-.4-.6-.5-1-.4-.4,0-1.1-.5-1.5h-.1Z"/>
  <path class="cls-4" d="M92.1,14.47h.7c.2,0,.4,0,.7.1-.2.1-.5.2-.6.4-.6.9-.8,2-1.7,2.6.3.1.6.2.9.3,0,1-.7,1.6-1,2.5h-.5c-.3-.5-.3-1,0-1.5v-3.5c.2-.1.3-.3.5-.5.1-.2.3-.3.5-.5h.5v.1Z"/>
  <path class="cls-23" d="M26.4,15.97v2.7c0,.1-.4.2-.6.2-.1,0-.4-.2-.4-.2v-5.4s.4-.2.6-.2c.1,0,.4.1.4.2v2.7h0Z"/>
  <path class="cls-4" d="M79.6,6.97v-.5c.2-.2.3-.2.5,0s.3.3.5.5c.8.3,1,1,1.2,1.7v.6c0,.4-.2.8-.2,1.1-.2.5.5,1.3-.5,1.5-1.4-1.4-1.7-3.1-1.5-5v.1Z"/>
  <path class="cls-21" d="M84.1,25.37h.7c.6,0,1.5,0,1.6-.2.2-.6,1-.7,1-1,.2-1.2,1-.7,1.6-.8,0,.3-.1.9-.2.9-1.2,0-.8,1.7-2,1.6-.9,0-1.8,0-2.7-.1,0,0-.1-.3-.2-.4h.2Z"/>
  <path class="cls-6" d="M76.6,4.57v.2c.1,1-.1,1.9-.8,2.7-.4-.8-.8-1.6-.7-2.6,0-.4-.3-.8-.5-1.2.2-.1.3-.3.4-.3.2,0,.4.2.5.3.2.4.6.8,1,1h0l.1-.1Z"/>
  <path class="cls-30" d="M28,14.87c0,1.4-.2,2.7-.2,4-.7-1.2-.2-2.6-.3-3.9,0-1.5,0-2.9.1-4.4.8,1.4,0,2.9.4,4.3h0Z"/>
  <path class="cls-5" d="M75.6,13.97c0-1.1.7-1.5,1.5-2,.2.2.3.3.5.5,0,.3-.3.3-.5.5,0,1-.8,1.9-.5,3-.7-.5-1-1.1-1-2Z"/>
  <path class="cls-26" d="M83.6,3.07h-1c-.2-.3-.5-.7-.5-1,0-.6.4-1.3.7-1.9h.6c0,.5.8.8.3,1.5-.2.3-.1.9-.2,1.4h.1Z"/>
  <path class="cls-23" d="M54.3,18.57v.7c-.2.4-.5.7-.8,1.1h-.4v-1.4c0-.3.1-.6.2-.9.1-.2.3-.4.5-.6.2.2.3.4.5.7v.5h0v-.1Z"/>
  <path class="cls-3" d="M88.6,11.47c-.7,0-.4-.5-.5-.9,0-.2-.3-.4-.5-.6,0-1.1.4-1.4,1.5-1.5.3,0,.3.4.5.5-.4.8-1.4,1.4-1,2.5h0Z"/>
  <path class="cls-6" d="M91.1,20.37c-.4-1.1.6-1.7,1-2.5h1.5c-.2.7-.9.8-1.3,1.2-.4.4-.5,1.1-1.2,1.3h0Z"/>
  <path class="cls-14" d="M84.1,4.57c0-.3,0-.7.2-.9.3-.3.8-.4,1.2-.6.3-.1.6-.2,1-.4,0,.5.5,1.1-.4,1.3-.2.1-.3.3-.5.4-.5.2-1,.4-1.5,0h0v.2Z"/>
  <path class="cls-3" d="M82.6,6.57c0,1,.8,1.9.5,3-.8.3-.9-.4-1.2-.8-.2-.5-.3-1.1-.5-1.6v-.7c.1-.4.3-.6.7-.4.2.2.3.3.5.5h0Z"/>
  <path class="cls-23" d="M25.7,10.37c.3.7.5,1.2.7,1.8,0,0-.5.3-.7.3s-.7-.3-.7-.3c.2-.6.4-1.1.7-1.8h0Z"/>
  <path class="cls-7" d="M86.1,11.47c0,.4.2,1-.5,1-.2.2-.3.2-.5,0v-1.4c0-.2.3-.4.5-.6,0,.4-.2,1,.5,1h0Z"/>
  <path class="cls-1" d="M85.6,6.97h-.5s-.2-.2-.2-.3c-.2-.6-.1-1.2.6-1.5.2,0,.5,0,.6.2v1.5c-.2.2-.3.2-.5,0h0v.1Z"/>
  <path class="cls-17" d="M82.1,6.07c-.2.2-.3.3-.5.5s-.3.2-.5,0v-2.5c.2.1.4.2.5.4.2.5.3,1.1.5,1.6h0Z"/>
  <path class="cls-14" d="M81.1,6.57h.5v.5c.4.5.2,1.1.2,1.7,0,0-.2.2-.2.3-.2-.1-.4-.2-.5-.4-.2-.5-.3-1.1-.5-1.6.2-.2.3-.3.5-.5h0Z"/>
  <path class="cls-1" d="M80.1,6.57h-1v-.5c0-.5,0-.9.2-1.4.8.2,0,1,.5,1.3.2.1.2.4.3.6h0Z"/>
  <path class="cls-14" d="M81.1,2.87v1l-.2.2c0-.1-.2-.2-.2-.4v-1.4c0-.2.1-.4.2-.6,0,.2.2.5.3.8v.5h0l-.1-.1Z"/>
  <path class="cls-24" d="M79.6,24.37l1.5,1.5c-.5-.2-1.3.5-1.5-.5v-1Z"/>
  <path class="cls-19" d="M36.4,15.47v2h-.5v-2h.5Z"/>
  <path class="cls-7" d="M86.6,10.47c.2.2.5.4.5.6,0,.6-.6.3-1,.4,0-.4-.2-1,.5-1Z"/>
  <path class="cls-4" d="M89.6,8.97c-.2-.2-.3-.3-.5-.5v-1c.2-.2.3-.2.5,0v1.5Z"/>
  <path class="cls-7" d="M85.6,6.97h.5v1.5c-1-.2-.3-1-.5-1.5Z"/>
  <path class="cls-1" d="M89.6,7.47h-.5c0-.2.2-.4.3-.5.2-.1.4-.2.6-.2,0,.4.1.8-.5.8h0l.1-.1Z"/>
  <path class="cls-7" d="M86.1,5.57h-.5c-.4-.5-.4-1,0-1.5h.5v1.5Z"/>
  <path class="cls-13" d="M76.6,4.57c-.8.1-1.2-.2-1-1,.3.3.7.7,1,1Z"/>
  <path class="cls-13" d="M74.6,11.47c1,.2.3,1,.5,1.5-1-.2-.3-1-.5-1.5Z"/>
  <path class="cls-4" d="M87.1,13.97c.2-.5-.5-1.3.5-1.5-.2.5.5,1.3-.5,1.5Z"/>
  <path class="cls-13" d="M78.1,24.37c0-.1.1-.3.2-.4.1,0,.3.1.3.2v1.2c-.7,0-.4-.6-.5-1h0Z"/>
  <path class="cls-11" d="M49.8,10.47h-1c.2-.2.4-.3.6-.5.1.2.2.3.4.5h0Z"/>
  <path class="cls-15" d="M91.1,12.97h-.5c.2-.2.4-.4.6-.5l.4.2c-.2.1-.3.2-.4.3h-.1Z"/>
  <path class="cls-30" d="M44.1,12.97c0,.1.1.2.2.3,0,0,0,.1-.2.2,0-.1-.1-.2-.2-.3,0,0,0-.1.2-.2Z"/>
  <path class="cls-3" d="M91.6,14.47c-.2.2-.3.3-.5.5v-.5h.5Z"/>
  <path class="cls-26" d="M86.1,15.97c1-.3,1.6.3,1.9,1.1.3,1.1.4,2.2.6,3.3-.8.3-1.7.3-2.5,0-.3-.3-.4-.7-.3-1.1,0-.2.3-.3.2-.4s-.2,0-.3.2c-.2,0-.4.1-.6.1-.9-.1-1.7-.4-2.5-.8-.2-.1-.4-.3-.5-.4,0-.2,0-.4.1-.6.3-.2.6-.4.9-.5.8,0,.5-.6.5-1,0,0,.2-.1.2-.2,0,0,.2.1.2.2h2l.1.1Z"/>
  <path class="cls-27" d="M79.6,6.97c0,1.8.9,3.3,1.5,5v.2c.1.2.2.4.4.6-.3,0-.6,0-.9.1-.7-.2-1-.8-1-1.5,0-1,.2-2-.4-2.9-.2-.3-.5-1.3.4-1.5Z"/>
  <path class="cls-6" d="M79.6,11.47c.3.5.7,1,1,1.5,0,.4.2,1-.5,1h-.7c-.3-1.4-1.4-.9-2.3-1,.2-.2.3-.3.5-.5.4-.1.7-.2,1.1-.3.3-.2.6-.4.9-.7h0Z"/>
  <path class="cls-4" d="M85.1,12.47h.5c-.2.4-.3.9-.5,1.2-.2.3-.6.4-.8.6,0-.4-.2-.8,0-1.1s.6-.5.9-.7h-.1Z"/>
  <path class="cls-10" d="M83.1,11.47c.2.2.5.4.5.6,0,.5-.3,1-.5,1.5,0,.1-.1.3-.2.4,0-.2-.2-.4-.3-.5v-1.9c.2-.2.3-.2.5,0h0v-.1Z"/>
  <path class="cls-28" d="M83.1,11.47h-.5c-.7,0-.4-.6-.5-1-.1-.2-.1-.4,0-.5.5-.2.7.2.9.5v1h.1Z"/>
  <path class="cls-19" d="M84.1,8.97v-2c.2-.2.5-.1.7,0,0,.6.2,1.3-.2,1.9h-.5v.1Z"/>
  <path class="cls-1" d="M84.6,8.97v-2c.2-.2.3-.2.5,0v1.4c0,.2-.3.4-.5.6h0Z"/>
  <path class="cls-10" d="M83.6,15.97h-1q0-1,1-.5c.1.1.2.2.1.3s0,.2-.1.2Z"/>
  <path class="cls-10" d="M82.1,9.97v.5h-.5c-.2-.2-.3-.4-.5-.6.2-.1.3-.2.5-.4h.2c.1.1.2.2.3.3v.2h0Z"/>
  <path class="cls-22" d="M83.6,15.97v-.5c.1-.1.2-.3.3-.4,0,.1.1.3.2.4v.5h-.5Z"/>
  <path class="cls-19" d="M84.1,9.47l-.4-.3c.1,0,.3-.1.4-.2v.5h0Z"/>
  <path class="cls-12" d="M76.6,18.97c.7,0,.4-.6.5-1,0-.7.6-.4,1-.5v3.5c-.8-.4-1.6-.9-1.5-2h0Z"/>
  <path class="cls-12" d="M78.1,20.87c.3-.2.7-.3,1-.5.3,0,.6.3.7.6,0,.6-.3,1-.7,1.4v.5c-.6,0-1.1,0-1-.8v-1.2h0Z"/>
  <path class="cls-19" d="M32.4,16.57v-.2c.2-.4-.5-1.2.5-1.3.8-.1,1.9.8,2,1.7,0,.8-.4,1.2-1.1,1.3-1.2.2-1.4,0-1.4-1.4v-.1Z"/>
  <path class="cls-19" d="M32.4,12.87v-.2c.1-.4-.3-1,.5-1.1s1.4.3,1.5,1.1c0,.5.2,1.2-.4,1.5-.3.2-.7.3-1.1.3-.7,0-.4-.5-.5-.9v-.7Z"/>
  <path class="cls-8" d="M86.1,20.37c.8-.6,1.7-.6,2.5,0-.2.2-.5.5-.5.8.1,1.1-.4,1.4-1.3,1.2-.5,0-.7.1-.7.6,0,.2-.6.2-.9.3-.6-.5-.6-1.2-.5-1.9,0-.2.1-.4.3-.6.3-.3.7-.5,1.2-.5h0l-.1.1Z"/>
  <path class="cls-16" d="M85.1,20.87v2.5c-.6.5-1.3.6-2,.5-.2-.2-.2-.4-.3-.6.2-1,.8-1.8,1.6-2.5h.6l.1.1Z"/>
  <path class="cls-29" d="M79.1,22.37c.2-.5.3-1,.5-1.5,1-.2,1.2.4,1.2,1.2,0,0-.1.2-.2.3h-1.5Z"/>
  <path class="cls-25" d="M82.6,23.37c-.8,0-1.7.1-2-1,.3-.3.6-.4,1-.3.5.1.9.4,1.1,1v.4h0l-.1-.1Z"/>
  <path class="cls-9" d="M90.6,18.97v1.5h-.5c.2-.5-.5-1.3.5-1.5Z"/>
  <path class="cls-25" d="M83.1,23.37v.5l-.5-.5c.2-.2.3-.2.5,0Z"/>
  <path class="cls-26" d="M81.6,22.37h-1c0-.8-.2-1.3-1-1.5l-.5-.5v-.5c-.3-.5-.3-1,0-1.5.5-.6,1.1-1,2-1,.2.3.7.2,1,.5.6.6,1.1,1.3.8,2.3-.6.6-.8,1.5-1.3,2.2Z"/>
  <path class="cls-29" d="M79.1,18.47v1.5c-.7-.5-.7-1,0-1.5Z"/>
  <path class="cls-29" d="M82.1,17.97c-.4,0-.9.2-1-.5h1v.5Z"/>
  <path class="cls-12" d="M78.4,16.97s.2.1.2.2-.1.2-.2.3c0,0-.2-.1-.2-.2,0,0,.2-.2.3-.2h0l-.1-.1Z"/>
  <path class="cls-3" d="M91.1,14.97c-.2.2-.3.3-.5.5.2-.2.3-.3.5-.5Z"/>
  <path class="cls-27" d="M14,16.27c0-1,.4-1.7.9-1.8.6,0,1.1.7,1.1,1.8v.5c0,.7-.4,1.1-1,1.1s-1-.5-1-1.2v-.5.1Z"/>
  <path class="cls-27" d="M41.3,16.27c0-1,.4-1.7.9-1.8.6,0,1.1.7,1.1,1.8v.5c0,.7-.4,1.1-1,1.1s-1-.5-1-1.2v-.5.1Z"/>
  <path class="cls-19" d="M38.3,14.27c.3.3.5.5.6.7,0,.6-.5.5-.8.5-.2,0-.4-.3-.6-.5.3-.2.5-.4.9-.7h-.1Z"/>
  <path class="cls-19" d="M23.6,16.57c-.2.4-.4.9-.7,1.2-.5.5-1.1.3-1.4-.4-.4-.7-.8-1.3,0-2.1.3-.3.3-.7.9-.8.8,0,.6.6.8,1,.2.3.3.7.5,1.2l-.1-.1Z"/>
  <path class="cls-27" d="M11.5,16.37c0,.2.1.6,0,.7-.3.3-.7.8-1,.8s-.8-.5-.9-.9c-.2-.4-.2-1,0-1.5.1-.4.6-.9.9-.9s.8.5,1,.8c.1.2,0,.6,0,1h0Z"/>
  <path class="cls-27" d="M85.1,6.97h-1v-2.5c.5-.2,1-.3,1.5-.5v1.5c-1,.2-.3,1-.5,1.5Z"/>
  <path class="cls-10" d="M83.1,10.47c-.3-.2-.7-.3-1-.5-.2-.2-.3-.3-.5-.5v-.5c.2-.1.2-.5.5-.5.2.2.3.4.5.6.1.1.3.2.5.4v1Z"/>
  <path class="cls-17" d="M82.1,8.47c-.2.2-.3.3-.5.5v-2c1,.2.3,1,.5,1.5Z"/>
  <path class="cls-8" d="M82.6,20.37c-.2-.8-.3-1.6-.5-2.5,1.2.3,2.3.7,3.5,1,.2.1.2.3.2.5,0,.3-.2.5-.2.8s-.2.5-.4.7h-.5c-.8.5-1.5.2-2-.5h-.1Z"/>
  <path class="cls-16" d="M85.6,19.47v-.5c.2-.2.3-.2.5,0v1.5c0,.7-.6.4-1,.5v-1c.2-.2.3-.3.5-.5h0Z"/>
  <path class="cls-21" d="M86.1,18.97h-.5c0-.2.2-.4.3-.5.2-.1.4-.2.6-.2,0,.4.1.8-.5.8h0l.1-.1Z"/>
  <path class="cls-28" d="M81.6,9.47c.2.2.3.3.5.5-.2-.2-.3-.3-.5-.5Z"/>
  <path class="cls-20" d="M82.6,20.37c.3,0,.6,0,.9.2.4,0,.7.2,1.1.3-.5.8-1,1.7-1.5,2.5h-.5c-.3-.3-.7-.7-1-1v-.5c0-.5-1-.8-.3-1.4.3-.2.9-.1,1.3-.2v.1Z"/>
  <path class="cls-26" d="M85.6,19.47c-.2.2-.3.3-.5.5.2-.2.3-.3.5-.5Z"/>
</svg>