<?xml version="1.0" encoding="UTF-8"?>
<svg id="Layer_1" data-name="Layer 1" xmlns="http://www.w3.org/2000/svg" version="1.1" viewBox="0 0 100 60.6">
  <defs>
    <style>
      .cls-1 {
        fill: #a43326;
      }

      .cls-1, .cls-2, .cls-3, .cls-4, .cls-5, .cls-6, .cls-7, .cls-8, .cls-9, .cls-10, .cls-11, .cls-12, .cls-13, .cls-14, .cls-15, .cls-16, .cls-17, .cls-18, .cls-19, .cls-20, .cls-21, .cls-22, .cls-23, .cls-24, .cls-25, .cls-26, .cls-27, .cls-28, .cls-29, .cls-30 {
        stroke-width: 0px;
      }

      .cls-2 {
        fill: #1f7067;
      }

      .cls-3 {
        fill: #6b9fd1;
      }

      .cls-4 {
        fill: #bf3929;
      }

      .cls-5 {
        fill: #247d73;
      }

      .cls-6 {
        fill: #14463f;
      }

      .cls-7 {
        fill: #e96227;
      }

      .cls-8 {
        fill: #523631;
      }

      .cls-9 {
        fill: #5baea8;
      }

      .cls-10 {
        fill: #bf6d2e;
      }

      .cls-11 {
        fill: #6aa15a;
      }

      .cls-12 {
        fill: #f4965c;
      }

      .cls-13 {
        fill: #52736e;
      }

      .cls-14 {
        fill: #23829c;
      }

      .cls-15 {
        fill: #7cabd7;
      }

      .cls-16 {
        fill: #a8cdc8;
      }

      .cls-17 {
        fill: #dc8d27;
      }

      .cls-18 {
        fill: #1a7185;
      }

      .cls-19 {
        fill: #e5edf5;
      }

      .cls-20 {
        fill: #24846b;
      }

      .cls-21 {
        fill: #639bce;
      }

      .cls-22 {
        fill: #1d645e;
      }

      .cls-23 {
        fill: #beb133;
      }

      .cls-24 {
        fill: #efb71d;
      }

      .cls-25 {
        fill: #fff;
      }

      .cls-26 {
        fill: #289188;
      }

      .cls-27 {
        fill: #20515f;
      }

      .cls-28 {
        fill: #809f9b;
      }

      .cls-29 {
        fill: #5a96cc;
      }

      .cls-30 {
        fill: #36a09c;
      }
    </style>
  </defs>
  <path class="cls-25" d="M14.9,134.4c-16.4,0-32.8,0-49.2,0-.6,0-.8,0-.8-.4,0-9.9,0-19.8,0-29.7,0-.3.1-.4.8-.4,4.6,0,9.1,0,13.7,0,28.2,0,56.4,0,84.5,0,.9,0,1,0,1,.5,0,9.8,0,19.7,0,29.5,0,.4-.2.5-1,.5-16.3,0-32.7,0-49,0Z"/>
  <path class="cls-30" d="M51,112.3c0,.7,0,1.4-.5,2-.6.5.1,1.3-.2,1.8,0,.2-.4.2-.2.5,0-.1,0-.3.2-.4.2-.4.4-.7.7-.9.3-.3.5-.6.5-1,0-.7.6-.4,1-.5,1.3-.1.3,1.2,1,1.5-.3.3-.7.7-1,1-.5.4,0,1.1-.5,1.5v1c-.1.6-.5,1-1.1,1.3-.5.2-1.1.2-1.6,0-.4,0-.4-.9-1-.6-.4,0-.7.4-1,.4-.9-.5-1.9-.9-2.4-2,0-.5.2-.9.5-1.2.7,0,.9-.4.5-1,0-.6.2-1.1.6-1.5.2,0,.4-.1.7,0,.4.3.5.8.7,1.1.2.3,0,.6.2.9,0-.3,0-.6,0-.9-.1-.3-.1-.6,0-.9.2-.4.4-.7.6-1,0-.2.2-.4.3-.5,0,0,.1-.2.2-.2.1-.2.2-.3.4-.5.2-.4.3-1,.7-1.3.2-.1.4-.1.6,0,.3.5,0,1.1.4,1.5h0Z"/>
  <path class="cls-27" d="M43,128.2c-1.9.1-3-1.3-4.4-2.2,0-.9-.8-1.4-1.4-1.8-.7-.5-.7-1.2-.6-1.9.2-1.5,1.2-1.3,2.1-1,.9.3,1.8.8,2.7,1.1.8.5,1.2,1.3,1.8,2,.1.2.2.4.3.6.2.6.4,1.2.8,1.7.3.5.4,1,.6,1.6,0,.3,0,.7-.3.9h-1c-.3-.2,0-.8-.5-1h0Z"/>
  <path class="cls-14" d="M39.5,115.3c-.2-.1-.5-.3-.5-.4,0-2.4,0-4.8,0-7.2,0-.1.3-.3.5-.4.4.2.7.4.8.8.3.8.4,1.5.3,2.3.3-.7.1-1.6.9-2.1.5.5.9,1.2,1.4,1.6.2.2.7.2,1.1.3.2-.2.4-.2.6,0,0,.2.1.5.1.7-.2,1.4.7,2.9,0,4.3-.5.8-1.1,1.4-2.2,1.2-.4-.1-.6-.4-.8-.7-.3-1.8-1-2.2-2.3-.6h0Z"/>
  <path class="cls-29" d="M.8,121.3c-.7,1.9-2.3,1.5-3.7,1.5-1.3,0-1.8-.5-1.2-1.6.5-1,.4-1.9.4-2.8,0-.9,0-1.7-.4-2.5-.5-1.2.2-2,1.5-2,.5,0,1-.1,1.5,0,.5.1.9.5,1.4.8-.5.8.9,1.3.3,2.2-.5.7-.8,1.7.2,2.5.5.7.5,1.3,0,2h0Z"/>
  <path class="cls-21" d="M27.6,118.3c0,1.1,0,2.1,0,3.2,0,.4.4,1.1-.4,1.2-.3,0-.8-.3-1-.6-.9-1.6-2.3-3-2.6-4.9,0-.1-.1-.3-.2-.4,0,.2-.3.4-.3.5,0,1.6,0,3.3,0,5,0,.1-.3.4-.5.4s-.5-.2-.5-.3c0-2.7,0-5.5,0-8.2,0-.1.2-.4.2-.4.3,0,.7.1.8.4.5.9.9,1.9,1.4,2.9.5.9,1.1,1.7,1.6,2.6.1-.1.4-.2.4-.3,0-1.6,0-3.3,0-5,0-.2.4-.4.6-.5.1.2.4.3.4.5,0,1.3,0,2.6,0,4h0Z"/>
  <path class="cls-24" d="M44.5,128.2c-1-.2-.3-1-.5-1.5-.2-.2-.2-.4,0-.6.4-.3.9-.3,1.3-.2.7.3,1.3.7,2,.9.3,0,.6.2.9.2.6,0,1.2-.2,1.7-.4,1.1-.7,2.2-1.1,2.9-2.2.2-.2.3-.3.5-.4.4-.2.9-.2,1.3-.2.2,0,.4,0,.7,0,.2,0,.4.2.5.4,0,2.2-.2,2.5-2,3-1.5,1-2.6,3.1-5,2-1,.2-2,.3-3,.5-.8-.2-1.3-.7-1.5-1.5h0Z"/>
  <path class="cls-11" d="M45,117.8c0,.1,0,.4.2.4,1,.2,1.7.9,2.3,1.6.3-.3.7-.2,1,0,.6,1.2-.4,1.5-1.2,1.9-.3.1-.7.2-1.1.2-.7,0-1.3.2-1.8.7-.3.4-.3.8-.2,1.2,0,.2,0,.4-.1.6-.3.3-.6.7-1.1.4-.5-.8-.7-1.6-.5-2.5,0-.1,0-.3,0-.4-.2,0-.5.1-.7.1-.3-.1-.4-.3-.2-.6v-1.5c-.5-1.1-.6-2.1.3-3.1,1.3-.3,2.5-.5,3.1,1.1,0,0,0,0,0,0Z"/>
  <path class="cls-21" d="M29.6,118.7v.5c0,2.2.5,2.5,2.6,1.8.2,0,.6-.1.6,0,.1.3.3.6.2.9-.2.4-.5.9-.8,1-2.1.6-4-.8-4.1-3,0-.8,0-1.7,0-2.5-.2-1.1,1.5-1.4,1.1-2.6,0,0,.6-.4.9-.5,1.5-.7,2.8,0,3,1.7,0,.1-.2.4-.4.4-.2,0-.4-.2-.6-.3-1.8-.6-2.4-.1-2.4,1.6,0,0,0,1,0,1Z"/>
  <path class="cls-3" d="M-30.1,119.3c0-.9,0-1.8,0-2.7,0-.5,0-.8-.6-.8s-.8-.1-.8-.3c0-.5,0-1,0-1.5,0-.1.4-.2.6-.2.9,0,1.8,0,2.7,0,1.1,0,1.4.4,1.1,1.5,0,.2-.3.5-.4.5-1.2-.2-1.1.5-1.1,1.3,0,1.6,0,3.3,0,4.9,0,.5,0,.8-.7.8-.6,0-.9,0-.9-.8,0-.9,0-1.8,0-2.7,0,0,0,0,0,0Z"/>
  <path class="cls-7" d="M55,124.2h-1.5c-1.3-1.2-1-3.4-2.5-4.5.3-.3.7-.7,1-1,.9-.6,2.3-.7,2.8-2,0,0,.5,0,.7,0,.2-.2.3-.2.5,0v1.5c0,0,.1.2.2.3,0,.1,0,.2,0,.3,0,.3,0,.7,0,1,0,.9,0,1.9-.2,2.8-.2.6-.5,1.1-.9,1.5h0Z"/>
  <path class="cls-29" d="M-22.1,120.8c0-1.1,0-2.3,0-3.5,0-.2.4-.4.6-.5.2.3.5.6.7.9.2-.3.3-.7.6-.9.2-.1.7,0,.9.1,1.2,1.1,1.6,4.2.6,5.5-.5.7-1.3.5-1.9.1-.4-.2-.5-.3-.6.2-.2.7.5,2-.6,1.9-.9,0-.3-1.4-.4-2.1,0-.6,0-1.1,0-1.7,0,0,0,0,0,0Z"/>
  <path class="cls-29" d="M7.8,122.8c-2.3,0-2.4-.2-2.6-2.6-.1-1.3.6-2.1,1.1-3,.3-.6,1.2-.3,1.8-.3,0,.9,1.3.9,1.2,1.9,0,.9-.4,1.9.4,2.8.5.6,0,1.1-.9,1.2h-1Z"/>
  <path class="cls-2" d="M41.5,121.3c.2.2.3.3.5.5.2.5.4,1-.5,1-.9,0-1.8.1-2.7-.8-.6-.7-1.7-.8-2.3.3,0,0-.2,0-.2,0-.7-1-1.3-2.5-.5-3.3.8-.8,2.2,0,3.3.5.9.5,1.3,1.6,2.5,1.7Z"/>
  <path class="cls-21" d="M1.3,119.3c-.2-1.1,1.2-1.4,1.3-2.5,0,0,.8,0,1.2,0,.6,0,.4.6.6.8.8.9.3,1.9.4,2.8,0,.1-.3.4-.5.4-.6,0-1.2,0-1.7,0,0,0,0,.4,0,.5.3.6.9.5,1.5.5.2,0,.5-.9.7,0,0,.4.3,1-.6,1-.6,0-1.2,0-1.7,0-.8-.1-1.3-.6-1.2-1.5-.4-.7-.4-1.3,0-2h0Z"/>
  <path class="cls-21" d="M-14.7,119.8c0-.4,0-.8,0-1.2.3-2,.8-2.2,2.5-1,0,0,.3,0,.4-.1.2-.2.3-.6.5-.6.7,0,.5.5.5.8,0,1.5,0,3,0,4.5,0,.7-.4.9-.9.5-.4-.3-.5,0-.7,0-1.7.4-1.9.2-2.4-1.3-.4-.5-.4-1,0-1.5h0Z"/>
  <path class="cls-5" d="M57,118.3c-.2-.8,1.4-.3,1-1.2.6-.2,1.1-.5,1.7-.7,1-.4,1.7.1,1.2,1.2-.6,1.5-.6,3.4-2.4,4.2-.4.3-.8.4-1.3.5-1.3,0-1.3-.8-1-1.8.2-.7,1.4-1.1.8-2.1h0Z"/>
  <path class="cls-3" d="M-22.4,120.2c.2,1.3-.7,1.9-1.4,2.5-.2.2-.8,0-.8.6,0,0-.2.2-.4.2,0-1.1-1.3-.7-1.6-1.5-.2-.7-.5-1.3-.5-2,0-1,.9-1.6,1.3-2.4.4-.8.8-.9,1.4-.8.3,0,.6.2.7.4.4,1,.8,2,1.2,3h0Z"/>
  <path class="cls-15" d="M17.7,122.8c-1.5,0-1.5,0-1.5-1.1,0-1,0-2,0-3,0-.6-.6-.3-1-.4-1.1-.2-.9-.8-.5-1.5h1c1.6,0,2,.4,2,2.1,0,1.3,0,2.6,0,3.9h0Z"/>
  <path class="cls-3" d="M-14.7,119.8v1.5c-.6.6-.9,1.6-2,1.7-.1,0-.2.5-.4.7,0-.2-.2-.4-.2-.7,0-.6-.2-1.3.8-1.4.4,0,.3-.6-.2-.9-.2-.1-.5-.3-.6-.5-.2-.6-.6-1.2-.4-1.7.1-.4.4-.8.4-1.3,0-.6.6-.4.9-.4.6,0,.6.4.6.8,0,.2,0,.3,0,.5-.2.9,0,1.5,1,1.7Z"/>
  <path class="cls-21" d="M12.1,122.8c-1.2,0-1.8-.5-1.9-1.8,0-1.3-.3-2.6,1-3.5,0-1.4,1.2-.3,1.7-.7,0,.5.4,1.1.3,1.5-.2,1-.5-.1-.7,0-.3,0-.6.2-.8.3-.8.5-.4,1.4-.4,2,0,.9.7,1.1,1.5,1.1.1,0,.3.3.4.4-.2.2-.4.4-.6.5-.1,0-.3,0-.5,0h0Z"/>
  <path class="cls-21" d="M14.7,116.8c.2.5-.5,1.3.5,1.5-.2.7-.4,1.3-.5,2,0,.6,0,1.3,0,2,0,.2-.2.3-.4.5-.2-.2-.6-.4-.6-.5,0-2.6,0-5.3,0-7.9.3-.3.7-.3,1,0v2.5h0Z"/>
  <path class="cls-9" d="M49,113.3c.2.8-.2,1.1-1,1,0,0-.2-.2-.3-.2-.2-.3-.3-.7-.3-1,0-.9-.6-1.8,0-2.7v-3.5c.3-.3.7-.3,1,0,.2.5-.5,1.3.5,1.5,0,0,.2.2.3.3.4.7.4,1.5.2,2.3,0,.6,0,1.3-.5,1.9-.1.1-.2.2-.1.3s0,.2.1.2Z"/>
  <path class="cls-18" d="M39.5,115.3c0-.3,0-.6,0-1,0-.9,0-.9,1.2-.6.2,0,.5,0,.7,0,.3-.2.6-.7.7.1,0,.6,0,1.3,0,2-.3.8-.8,1.5-1.5,2-.7,0-.4-.6-.5-1-.4-.4,0-1.1-.5-1.5h0Z"/>
  <path class="cls-22" d="M57,118.3c.2,0,.5,0,.7,0,.2,0,.4,0,.7.1-.2.1-.5.2-.6.4-.6.9-.8,2-1.7,2.6.3.1.6.2.9.3,0,1-.7,1.6-1,2.5h-.5c-.3-.5-.3-1,0-1.5v-3.5c.2-.1.3-.3.5-.5.1-.2.3-.3.5-.5h.5,0Z"/>
  <path class="cls-3" d="M-8.7,119.8c0,.9,0,1.8,0,2.7,0,.1-.4.2-.6.2-.1,0-.4-.2-.4-.2,0-1.8,0-3.6,0-5.4,0,0,.4-.2.6-.2.1,0,.4.1.4.2,0,.9,0,1.8,0,2.7h0Z"/>
  <path class="cls-22" d="M44.5,110.8v-.5c.2-.2.3-.2.5,0,.2.2.3.3.5.5.8.3,1,1,1.2,1.7,0,.2,0,.4,0,.6,0,.4-.2.8-.2,1.1-.2.5.5,1.3-.5,1.5-1.4-1.4-1.7-3.1-1.5-5Z"/>
  <path class="cls-7" d="M49,129.2c.2,0,.5,0,.7,0,.6,0,1.5,0,1.6-.2.2-.6,1-.7,1-1,.2-1.2,1-.7,1.6-.8,0,.3-.1.9-.2.9-1.2,0-.8,1.7-2,1.6-.9,0-1.8,0-2.7-.1,0,0-.1-.3-.2-.4h0Z"/>
  <path class="cls-18" d="M41.5,108.4v.2c.1,1-.1,1.9-.8,2.7-.4-.8-.8-1.6-.7-2.6,0-.4-.3-.8-.5-1.2.2-.1.3-.3.4-.3.2,0,.4.2.5.3.2.4.6.8,1,1h0Z"/>
  <path class="cls-29" d="M-7.1,118.7c0,1.4-.2,2.7-.2,4-.7-1.2-.2-2.6-.3-3.9,0-1.5,0-2.9.1-4.4.8,1.4,0,2.9.4,4.3h0Z"/>
  <path class="cls-27" d="M40.5,117.8c0-1.1.7-1.5,1.5-2,.2.2.3.3.5.5,0,.3-.3.3-.5.5,0,1-.8,1.9-.5,3-.7-.5-1-1.1-1-2Z"/>
  <path class="cls-24" d="M48.5,106.9h-1c-.2-.3-.5-.7-.5-1,0-.6.4-1.3.7-1.9,0,0,.4,0,.6,0,0,.5.8.8.3,1.5-.2.3-.1.9-.2,1.4Z"/>
  <path class="cls-3" d="M19.2,122.4c0,.2,0,.5,0,.7-.2.4-.5.7-.8,1.1,0,0-.4,0-.4,0,0-.5,0-.9,0-1.4,0-.3.1-.6.2-.9.1-.2.3-.4.5-.6.2.2.3.4.5.7,0,.1,0,.3,0,.5h0Z"/>
  <path class="cls-5" d="M53.5,115.3c-.7,0-.4-.5-.5-.9,0-.2-.3-.4-.5-.6,0-1.1.4-1.4,1.5-1.5.3,0,.3.4.5.5-.4.8-1.4,1.4-1,2.5h0Z"/>
  <path class="cls-18" d="M56,124.2c-.4-1.1.6-1.7,1-2.5h1.5c-.2.7-.9.8-1.3,1.2-.4.4-.5,1.1-1.2,1.3h0Z"/>
  <path class="cls-16" d="M49,108.4c0-.3,0-.7.2-.9.3-.3.8-.4,1.2-.6.3-.1.6-.2,1-.4,0,.5.5,1.1-.4,1.3-.2.1-.3.3-.5.4-.5.2-1,.4-1.5,0h0Z"/>
  <path class="cls-5" d="M47.5,110.4c0,1,.8,1.9.5,3-.8.3-.9-.4-1.2-.8-.2-.5-.3-1.1-.5-1.6,0-.2,0-.4,0-.7.1-.4.3-.6.7-.4.2.2.3.3.5.5h0Z"/>
  <path class="cls-3" d="M-9.4,114.2c.3.7.5,1.2.7,1.8,0,0-.5.3-.7.3-.2,0-.7-.3-.7-.3.2-.6.4-1.1.7-1.8h0Z"/>
  <path class="cls-13" d="M51,115.3c0,.4.2,1-.5,1-.2.2-.3.2-.5,0,0-.5,0-.9,0-1.4,0-.2.3-.4.5-.6,0,.4-.2,1,.5,1h0Z"/>
  <path class="cls-28" d="M50.5,110.8h-.5c0,0-.2-.2-.2-.3-.2-.6-.1-1.2.6-1.5.2,0,.5,0,.6.2v1.5c-.2.2-.3.2-.5,0,0,0,0,0,0,0Z"/>
  <path class="cls-30" d="M47,109.9c-.2.2-.3.3-.5.5-.2.2-.3.2-.5,0v-2.5c.2.1.4.2.5.4.2.5.3,1.1.5,1.6h0Z"/>
  <path class="cls-16" d="M46,110.4h.5v.5c.4.5.2,1.1.2,1.7,0,0-.2.2-.2.3-.2-.1-.4-.2-.5-.4-.2-.5-.3-1.1-.5-1.6.2-.2.3-.3.5-.5h0Z"/>
  <path class="cls-28" d="M45,110.4h-1c0-.2,0-.3,0-.5,0-.5,0-.9.2-1.4.8.2,0,1,.5,1.3.2.1.2.4.3.6h0Z"/>
  <path class="cls-16" d="M46,106.7c0,.3,0,.6,0,1,0,0-.2.2-.2.2,0-.1-.2-.2-.2-.4,0-.5,0-1,0-1.4,0-.2.1-.4.2-.6,0,.2.2.5.3.8,0,.1,0,.3,0,.5,0,0,0,0,0,0Z"/>
  <path class="cls-11" d="M44.5,128.2l1.5,1.5c-.5-.2-1.3.5-1.5-.5v-1Z"/>
  <path class="cls-19" d="M1.3,119.3v2h-.5v-2h.5Z"/>
  <path class="cls-13" d="M51.5,114.3c.2.2.5.4.5.6,0,.6-.6.3-1,.4,0-.4-.2-1,.5-1Z"/>
  <path class="cls-22" d="M54.5,112.8c-.2-.2-.3-.3-.5-.5v-1c.2-.2.3-.2.5,0v1.5Z"/>
  <path class="cls-13" d="M50.5,110.8h.5v1.5c-1-.2-.3-1-.5-1.5Z"/>
  <path class="cls-28" d="M54.5,111.3h-.5c0-.2.2-.4.3-.5.2-.1.4-.2.6-.2,0,.4.1.8-.5.8h0Z"/>
  <path class="cls-13" d="M51,109.4h-.5c-.4-.5-.4-1,0-1.5h.5v1.5Z"/>
  <path class="cls-14" d="M41.5,108.4c-.8.1-1.2-.2-1-1,.3.3.7.7,1,1Z"/>
  <path class="cls-14" d="M39.5,115.3c1,.2.3,1,.5,1.5-1-.2-.3-1-.5-1.5Z"/>
  <path class="cls-22" d="M52,117.8c.2-.5-.5-1.3.5-1.5-.2.5.5,1.3-.5,1.5Z"/>
  <path class="cls-14" d="M43,128.2c0-.1.1-.3.2-.4.1,0,.3.1.3.2,0,.4,0,.8,0,1.2-.7,0-.4-.6-.5-1h0Z"/>
  <path class="cls-15" d="M14.7,114.3h-1c.2-.2.4-.3.6-.5.1.2.2.3.4.5h0Z"/>
  <path class="cls-12" d="M56,116.8h-.5c.2-.2.4-.4.6-.5,0,0,.2.1.4.2-.2.1-.3.2-.4.3Z"/>
  <path class="cls-29" d="M9,116.8c0,.1.1.2.2.3,0,0,0,.1-.2.2,0-.1-.1-.2-.2-.3,0,0,0-.1.2-.2Z"/>
  <path class="cls-5" d="M56.5,118.3c-.2.2-.3.3-.5.5v-.5h.5Z"/>
  <path class="cls-24" d="M51,119.8c1-.3,1.6.3,1.9,1.1.3,1.1.4,2.2.6,3.3-.8.3-1.7.3-2.5,0-.3-.3-.4-.7-.3-1.1,0-.2.3-.3.2-.4s-.2,0-.3.2c-.2,0-.4.1-.6.1-.9-.1-1.7-.4-2.5-.8-.2-.1-.4-.3-.5-.4,0-.2,0-.4.1-.6.3-.2.6-.4.9-.5.8,0,.5-.6.5-1,0,0,.2-.1.2-.2,0,0,.2.1.2.2h2s0,0,0,0Z"/>
  <path class="cls-25" d="M44.5,110.8c0,1.8.9,3.3,1.5,5,0,0,0,.2,0,.2.1.2.2.4.4.6-.3,0-.6,0-.9.1-.7-.2-1-.8-1-1.5,0-1,.2-2-.4-2.9-.2-.3-.5-1.3.4-1.5Z"/>
  <path class="cls-18" d="M44.5,115.3c.3.5.7,1,1,1.5,0,.4.2,1-.5,1-.2,0-.7,0-.7,0-.3-1.4-1.4-.9-2.3-1,.2-.2.3-.3.5-.5.4-.1.7-.2,1.1-.3.3-.2.6-.4.9-.7h0Z"/>
  <path class="cls-22" d="M50,116.3h.5c-.2.4-.3.9-.5,1.2-.2.3-.6.4-.8.6,0-.4-.2-.8,0-1.1s.6-.5.9-.7h0Z"/>
  <path class="cls-26" d="M48,115.3c.2.2.5.4.5.6,0,.5-.3,1-.5,1.5,0,.1-.1.3-.2.4,0-.2-.2-.4-.3-.5,0-.6,0-1.3,0-1.9.2-.2.3-.2.5,0h0Z"/>
  <path class="cls-6" d="M48,115.3h-.5c-.7,0-.4-.6-.5-1-.1-.2-.1-.4,0-.5.5-.2.7.2.9.5v1h0Z"/>
  <path class="cls-19" d="M49,112.8v-2c.2-.2.5-.1.7,0,0,.6.2,1.3-.2,1.9h-.5Z"/>
  <path class="cls-28" d="M49.5,112.8v-2c.2-.2.3-.2.5,0,0,.5,0,.9,0,1.4,0,.2-.3.4-.5.6h0Z"/>
  <path class="cls-26" d="M48.5,119.8h-1c0-1,0-1,1-.5.1.1.2.2.1.3s0,.2-.1.2Z"/>
  <path class="cls-26" d="M47,113.8v.5h-.5c-.2-.2-.3-.4-.5-.6.2-.1.3-.2.5-.4h.2c.1.1.2.2.3.3v.2h0Z"/>
  <path class="cls-2" d="M48.5,119.8v-.5c.1-.1.2-.3.3-.4,0,.1.1.3.2.4,0,.2,0,.3,0,.5h-.5,0Z"/>
  <path class="cls-19" d="M49,113.3l-.4-.3c.1,0,.3-.1.4-.2v.5h0Z"/>
  <path class="cls-20" d="M41.5,122.8c.7,0,.4-.6.5-1,0-.7.6-.4,1-.5v3.5c-.8-.4-1.6-.9-1.5-2h0Z"/>
  <path class="cls-20" d="M43,124.7c.3-.2.7-.3,1-.5.3,0,.6.3.7.6,0,.6-.3,1-.7,1.4v.5c-.6,0-1.1,0-1-.8,0-.4,0-.8,0-1.2h0Z"/>
  <path class="cls-19" d="M-2.7,120.4c0,0,0-.2,0-.2.2-.4-.5-1.2.5-1.3.8-.1,1.9.8,2,1.7,0,.8-.4,1.2-1.1,1.3-1.2.2-1.4,0-1.4-1.4Z"/>
  <path class="cls-19" d="M-2.7,116.7c0,0,0-.2,0-.2.1-.4-.3-1,.5-1.1.8-.1,1.4.3,1.5,1.1,0,.5.2,1.2-.4,1.5-.3.2-.7.3-1.1.3-.7,0-.4-.5-.5-.9,0-.2,0-.5,0-.7Z"/>
  <path class="cls-4" d="M51,124.2c.8-.6,1.7-.6,2.5,0-.2.2-.5.5-.5.8.1,1.1-.4,1.4-1.3,1.2-.5,0-.7.1-.7.6,0,.2-.6.2-.9.3-.6-.5-.6-1.2-.5-1.9,0-.2.1-.4.3-.6.3-.3.7-.5,1.2-.5h0Z"/>
  <path class="cls-8" d="M50,124.7v2.5c-.6.5-1.3.6-2,.5-.2-.2-.2-.4-.3-.6.2-1,.8-1.8,1.6-2.5.2,0,.4,0,.6,0Z"/>
  <path class="cls-23" d="M44,126.2c.2-.5.3-1,.5-1.5,1-.2,1.2.4,1.2,1.2,0,0-.1.2-.2.3,0,0-1.5,0-1.5,0Z"/>
  <path class="cls-17" d="M47.5,127.2c-.8,0-1.7.1-2-1,.3-.3.6-.4,1-.3.5.1.9.4,1.1,1,0,.1,0,.2,0,.4h0Z"/>
  <path class="cls-10" d="M55.5,122.8v1.5h-.5c.2-.5-.5-1.3.5-1.5Z"/>
  <path class="cls-17" d="M48,127.2v.5l-.5-.5c.2-.2.3-.2.5,0Z"/>
  <path class="cls-24" d="M46.5,126.2h-1c0-.8-.2-1.3-1-1.5l-.5-.5v-.5c-.3-.5-.3-1,0-1.5.5-.6,1.1-1,2-1,.2.3.7.2,1,.5.6.6,1.1,1.3.8,2.3-.6.6-.8,1.5-1.3,2.2Z"/>
  <path class="cls-23" d="M44,122.3v1.5c-.7-.5-.7-1,0-1.5Z"/>
  <path class="cls-23" d="M47,121.8c-.4,0-.9.2-1-.5h1v.5Z"/>
  <path class="cls-20" d="M43.3,120.8c0,0,.2.1.2.2,0,.1-.1.2-.2.3,0,0-.2-.1-.2-.2,0,0,.2-.2.3-.2h0Z"/>
  <path class="cls-5" d="M56,118.8c-.2.2-.3.3-.5.5.2-.2.3-.3.5-.5Z"/>
  <path class="cls-25" d="M-21.1,120.1c0-1,.4-1.7.9-1.8.6,0,1.1.7,1.1,1.8v.5c0,.7-.4,1.1-1,1.1-.6,0-1-.5-1-1.2,0-.2,0-.3,0-.5Z"/>
  <path class="cls-25" d="M6.2,120.1c0-1,.4-1.7.9-1.8.6,0,1.1.7,1.1,1.8v.5c0,.7-.4,1.1-1,1.1-.6,0-1-.5-1-1.2,0-.2,0-.3,0-.5Z"/>
  <path class="cls-19" d="M3.2,118.1c.3.3.5.5.6.7,0,.6-.5.5-.8.5-.2,0-.4-.3-.6-.5.3-.2.5-.4.9-.7h0Z"/>
  <path class="cls-19" d="M-11.5,120.4c-.2.4-.4.9-.7,1.2-.5.5-1.1.3-1.4-.4-.4-.7-.8-1.3,0-2.1.3-.3.3-.7.9-.8.8,0,.6.6.8,1,.2.3.3.7.5,1.2Z"/>
  <path class="cls-25" d="M-23.6,120.2c0,.2.1.6,0,.7-.3.3-.7.8-1,.8s-.8-.5-.9-.9c-.2-.4-.2-1,0-1.5.1-.4.6-.9.9-.9.3,0,.8.5,1,.8.1.2,0,.6,0,1h0Z"/>
  <path class="cls-25" d="M50,110.8h-1v-2.5c.5-.2,1-.3,1.5-.5v1.5c-1,.2-.3,1-.5,1.5Z"/>
  <path class="cls-26" d="M48,114.3c-.3-.2-.7-.3-1-.5-.2-.2-.3-.3-.5-.5v-.5c.2-.1.2-.5.5-.5.2.2.3.4.5.6.1.1.3.2.5.4v1Z"/>
  <path class="cls-30" d="M47,112.3c-.2.2-.3.3-.5.5v-2c1,.2.3,1,.5,1.5Z"/>
  <path class="cls-4" d="M47.5,124.2c-.2-.8-.3-1.6-.5-2.5,1.2.3,2.3.7,3.5,1,.2.1.2.3.2.5,0,.3-.2.5-.2.8,0,.3-.2.5-.4.7h-.5c-.8.5-1.5.2-2-.5h0Z"/>
  <path class="cls-8" d="M50.5,123.3v-.5c.2-.2.3-.2.5,0v1.5c0,.7-.6.4-1,.5v-1c.2-.2.3-.3.5-.5h0Z"/>
  <path class="cls-7" d="M51,122.8h-.5c0-.2.2-.4.3-.5.2-.1.4-.2.6-.2,0,.4.1.8-.5.8h0Z"/>
  <path class="cls-6" d="M46.5,113.3c.2.2.3.3.5.5-.2-.2-.3-.3-.5-.5Z"/>
  <path class="cls-1" d="M47.5,124.2c.3,0,.6,0,.9.2.4,0,.7.2,1.1.3-.5.8-1,1.7-1.5,2.5h-.5c-.3-.3-.7-.7-1-1,0-.2,0-.3,0-.5,0-.5-1-.8-.3-1.4.3-.2.9-.1,1.3-.2Z"/>
  <path class="cls-24" d="M50.5,123.3c-.2.2-.3.3-.5.5.2-.2.3-.3.5-.5Z"/>
</svg>